<svg width="24" height="24" viewBox="0 0 24 24" fill="none" xmlns="http://www.w3.org/2000/svg">
<path fill-rule="evenodd" clip-rule="evenodd" d="M13.6483 17.1657C12.6718 16.9635 11.9683 16.8178 11.6137 17.7233C11.5053 18.0002 11.6263 18.4249 11.7509 18.8626C12.0654 19.9671 12.4035 21.1542 9.14052 20.2579C2.66484 18.4805 0.987058 10.0873 5.26529 6.12302C9.95289 1.78116 16.6852 3.14926 19.5699 7.15812C22.3125 10.9676 20.9825 15.8949 16.6767 17.1951C15.5017 17.5495 14.4767 17.3372 13.6483 17.1657ZM10.3665 8.25388C10.3665 9.24352 9.56427 10.0458 8.57463 10.0458C7.585 10.0458 6.78274 9.24352 6.78274 8.25388C6.78274 7.26425 7.585 6.46199 8.57463 6.46199C9.56427 6.46199 10.3665 7.26425 10.3665 8.25388ZM8.08593 13.0323C8.08593 14.0219 7.28367 14.8242 6.29404 14.8242C5.3044 14.8242 4.50214 14.0219 4.50214 13.0323C4.50214 12.0426 5.3044 11.2404 6.29404 11.2404C7.28367 11.2404 8.08593 12.0426 8.08593 13.0323ZM14.0046 10.0458C14.9943 10.0458 15.7965 9.24352 15.7965 8.25388C15.7965 7.26425 14.9943 6.46199 14.0046 6.46199C13.015 6.46199 12.2127 7.26425 12.2127 8.25388C12.2127 9.24352 13.015 10.0458 14.0046 10.0458Z" fill="#C58561"/>
</svg>