<svg width="28" height="28" viewBox="0 0 28 28" fill="none" xmlns="http://www.w3.org/2000/svg">
<path d="M23.127 10.9871L17.0048 4.8616C16.4956 4.35212 15.6549 4.35212 15.1338 4.8616C14.6246 5.37107 14.6246 6.21229 15.1338 6.73361L16.4127 8.01321L13.2155 11.2241L11.9958 10.0037C11.1313 9.13878 9.72216 9.13878 8.85772 10.0037L6.37096 12.4918C3.84868 15.0155 3.84868 19.1031 6.37096 21.6267C8.89325 24.1504 12.9786 24.1504 15.5009 21.6267L17.9877 19.1386C18.8521 18.2737 18.8521 16.8638 17.9877 15.9989L16.7798 14.7904L19.9889 11.5795L21.2678 12.8591C21.777 13.3686 22.6178 13.3686 23.1388 12.8591C23.648 12.3378 23.648 11.4966 23.127 10.9871ZM13.5589 15.5131L8.95245 20.122C8.79851 20.2761 8.60904 20.3471 8.40773 20.3471C8.20643 20.3471 8.01696 20.2761 7.86302 20.122C7.56697 19.8258 7.56697 19.3401 7.86302 19.032L12.4694 14.4231C12.7655 14.1269 13.251 14.1269 13.5589 14.4231C13.8668 14.7311 13.8668 15.2169 13.5589 15.5131Z" fill="#C58561"/>
</svg>