<svg width="24" height="24" viewBox="0 0 24 24" fill="none" xmlns="http://www.w3.org/2000/svg">
<path d="M3.88185 7.62446C3.88185 7.62446 5.52303 5.06921 8.11983 3.69809C10.7166 2.32698 13.9159 2.72169 16.0141 4.05126C18.1123 5.38082 18.8187 6.50264 18.8187 6.50264L20.626 5.46392C20.626 5.46392 21 5.27695 21 5.71321C21 6.14948 21 12.2364 21 12.2364C21 12.2364 21 12.8181 20.5637 12.6103C20.1967 12.4356 16.2274 10.1582 14.9766 9.43973C14.2898 9.13061 14.8933 8.87951 14.8933 8.87951L16.6374 7.87375C16.6374 7.87375 15.6425 6.61663 14.1865 5.95087C12.6279 5.13153 11.1688 5.03439 9.38136 5.71521C8.21592 6.15914 6.8437 7.29573 5.85542 8.9748C3.88185 7.62446 3.88185 7.62446 3.88185 7.62446ZM20.0859 16.2456C20.0859 16.2456 18.4447 18.8008 15.8479 20.1719C13.2511 21.543 10.0519 21.1483 7.95364 19.8188C5.85542 18.4892 5.14909 17.3674 5.14909 17.3674L3.34171 18.4061C3.34171 18.4061 2.96777 18.5931 2.96777 18.1568C2.96777 17.7205 2.96777 11.6336 2.96777 11.6336C2.96777 11.6336 2.96777 11.052 3.40404 11.2597C3.77106 11.4345 7.74033 13.7118 8.99111 14.4303C9.67792 14.7394 9.0745 14.9905 9.0745 14.9905L7.33041 15.9963C7.33041 15.9963 8.32525 17.2534 9.78127 17.9192C11.3399 18.7385 12.799 18.8356 14.5864 18.1548C15.7518 17.7109 17.1241 16.5743 18.1123 14.8952C20.0859 16.2456 20.0859 16.2456 20.0859 16.2456Z" fill="#C58561"/>
</svg>