<svg width="24" height="24" viewBox="0 0 24 24" fill="none" xmlns="http://www.w3.org/2000/svg">
<path d="M20.3391 3.4962C20.3385 3.34667 20.3147 3.22153 20.282 3.10859C19.6537 2.94232 18.8354 3.13357 18.1436 3.46929C18.0018 3.53792 17.6655 3.74259 17.1674 4.0456C16.9615 4.17136 16.7798 4.2818 16.6996 4.32734C16.6919 4.33185 16.6874 4.34017 16.6803 4.34468C15.3211 3.51679 13.7313 3.03027 12.0261 3.03027C7.07153 3.03027 3.0411 7.06073 3.0411 12.0152C3.0411 13.6762 3.50195 15.2281 4.29067 16.5636C3.35879 18 2.89673 19.037 3.0174 19.7399C3.04238 19.8836 3.29015 19.9066 3.42618 19.9066C6.20255 19.9066 12.5485 13.8142 13.3379 13.0376C16.8241 9.60852 20.3411 5.4164 20.3391 3.4962ZM7.85448 13.9945C6.97007 13.9945 6.25001 13.2751 6.25001 12.3901C6.25001 11.5057 6.97009 10.7856 7.85448 10.7856C8.73888 10.7856 9.45892 11.5057 9.45892 12.3901C9.45894 13.2751 8.73888 13.9945 7.85448 13.9945ZM10.6783 9.50205C9.6168 9.50205 8.75296 8.63814 8.75296 7.57671C8.75296 6.51516 9.6168 5.65132 10.6783 5.65132C11.7399 5.65132 12.6037 6.51516 12.6037 7.57671C12.6037 8.63814 11.7399 9.50205 10.6783 9.50205ZM19.68 7.33343C18.3342 9.33197 16.2183 11.7316 14.1074 13.8071C13.533 14.3726 10.0507 17.7471 7.1261 19.5453C7.12865 19.5434 7.13058 19.5421 7.13314 19.5408C8.54254 20.4605 10.2214 21.0003 12.0261 21.0003C16.9807 21.0003 21.0111 16.9698 21.0111 12.0152C21.0104 10.2985 20.5188 8.69916 19.68 7.33343ZM14.5483 17.7914C13.8405 17.7914 13.2648 17.2156 13.2648 16.5078C13.2648 15.7999 13.8405 15.2241 14.5483 15.2241C15.2562 15.2241 15.8319 15.7999 15.8319 16.5078C15.8319 17.2156 15.2562 17.7914 14.5483 17.7914Z" fill="#C58561"/>
</svg>