<svg width="23" height="23" viewBox="0 0 23 23" fill="none" xmlns="http://www.w3.org/2000/svg">
<path d="M21.5298 7.17006C21.4318 7.2876 21.3535 7.40514 21.2359 7.50309C21.1967 7.54227 21.1576 7.58145 21.1184 7.62063C21.0988 7.64022 21.0792 7.65981 21.0792 7.65981C21.0596 7.6794 21.0204 7.71859 21.0008 7.73818C20.9617 7.77736 20.9421 7.79694 20.9029 7.81653C20.8441 7.87531 20.7657 7.91449 20.707 7.97327C20.6678 7.99286 20.6286 8.03203 20.609 8.05162C20.5503 8.0908 20.5111 8.11039 20.4523 8.14957C19.9038 8.46302 19.2573 8.65893 18.5912 8.65893C17.5921 8.65893 16.691 8.26712 16.0249 7.64023C15.6723 7.30719 15.398 6.91539 15.2021 6.46481C14.9866 5.99464 14.8691 5.48529 14.8691 4.95635C14.8691 4.64291 14.9082 4.32946 14.9866 4.0356C13.5565 3.62421 12.4986 2.29206 12.4986 0.724839C12.4986 0.509345 12.5182 0.293855 12.5574 0.0979516C12.0872 0.0391807 11.6171 0 11.1469 0C4.99553 0 0 4.99553 0 11.1469C0 15.731 2.78183 19.6883 6.75866 21.3926C6.91539 21.471 7.0917 21.5298 7.26801 21.5885C7.2876 21.5885 7.30719 21.6081 7.32678 21.6081C7.48351 21.6669 7.64023 21.7257 7.79695 21.7649C7.8949 21.7844 7.97326 21.8236 8.07121 21.8432C8.16916 21.8628 8.24753 21.902 8.34548 21.9216C8.61975 21.9999 8.9136 22.0587 9.18786 22.1175C9.28582 22.1371 9.36418 22.1567 9.46213 22.1567C9.77557 22.1958 10.089 22.235 10.4025 22.2546C10.5592 22.2742 10.7159 22.2742 10.8726 22.2742C10.9706 22.2742 11.0685 22.2742 11.1665 22.2742C17.3179 22.2742 22.3134 17.2787 22.3134 11.1273C22.2546 9.73639 21.9999 8.40425 21.5298 7.17006ZM11.1077 7.42473C13.1647 7.42473 14.8299 9.08991 14.8299 11.1469C14.8299 13.2039 13.1647 14.8691 11.1077 14.8691C9.05073 14.8691 7.38555 13.2039 7.38555 11.1469C7.38555 9.08991 9.05073 7.42473 11.1077 7.42473Z" fill="url(#paint0_radial)"/>
<g opacity="0.47">
<path opacity="0.47" d="M21.53 7.17004C21.432 7.28759 21.3536 7.40513 21.2361 7.50308C21.1969 7.54226 21.1577 7.58144 21.1186 7.62062C21.099 7.64021 21.0794 7.6598 21.0794 7.6598C21.0598 7.67939 21.0206 7.71858 21.001 7.73817C20.9618 7.77735 20.9422 7.79693 20.9031 7.81652C20.8443 7.87529 20.7659 7.91448 20.7072 7.97325C20.668 7.99284 20.6288 8.03202 20.6092 8.05161C20.5504 8.09079 20.5113 8.11038 20.4525 8.14956C20.2958 10.089 19.7864 11.9109 18.9636 13.5565C18.5522 14.3989 18.0429 15.2021 17.4748 15.9465C16.2797 17.5137 14.7713 18.8067 13.0473 19.747C12.7731 19.8842 12.4988 20.0213 12.2246 20.1584C10.5398 20.942 8.6787 21.373 6.73926 21.3926C6.89598 21.471 7.07229 21.5298 7.24861 21.5885C7.2682 21.5885 7.28779 21.6081 7.30738 21.6081C7.4641 21.6669 7.62082 21.7257 7.77754 21.7648C7.87549 21.7844 7.95386 21.8236 8.05181 21.8432C8.14976 21.8628 8.22812 21.902 8.32608 21.9216C8.60034 21.9999 8.89419 22.0587 9.16846 22.1175C9.26641 22.1371 9.34477 22.1566 9.44272 22.1566C9.75617 22.1958 10.0696 22.235 10.3831 22.2546C10.5398 22.2742 10.6965 22.2742 10.8532 22.2742C10.9512 22.2742 11.0491 22.2742 11.1471 22.2742C17.2984 22.2742 22.294 17.2787 22.294 11.1273C22.2548 9.73638 22.0001 8.40423 21.53 7.17004Z" fill="url(#paint1_radial)"/>
</g>
<defs>
<radialGradient id="paint0_radial" cx="0" cy="0" r="1" gradientUnits="userSpaceOnUse" gradientTransform="translate(11.4395 9.18226) scale(30.2761)">
<stop offset="2.23767e-07" stop-color="#FF7EB5"/>
<stop offset="0.1798" stop-color="#E486E0"/>
<stop offset="0.328" stop-color="#D18CFF"/>
<stop offset="0.524" stop-color="#00B7FF"/>
<stop offset="0.7298" stop-color="#A9F4B1"/>
<stop offset="1" stop-color="#FFDB63"/>
</radialGradient>
<radialGradient id="paint1_radial" cx="0" cy="0" r="1" gradientUnits="userSpaceOnUse" gradientTransform="translate(15.9522 5.42744) scale(18.0357)">
<stop stop-color="#FF7EB5"/>
<stop offset="0.1798" stop-color="#E486E0"/>
<stop offset="0.328" stop-color="#D18CFF"/>
<stop offset="0.524" stop-color="#00B7FF"/>
<stop offset="0.7298" stop-color="#A9F4B1"/>
<stop offset="0.8476" stop-color="#FFDB63"/>
</radialGradient>
</defs>
</svg>