<svg width="28" height="28" viewBox="0 0 28 28" fill="none" xmlns="http://www.w3.org/2000/svg">
<path d="M20.3569 6.64289C16.5833 3.51708 10.965 3.77974 7.50098 7.43302C4.03483 11.0885 4.03483 16.9125 7.50098 20.5679C10.965 24.2212 16.5822 24.4839 20.3569 21.358C20.741 21.04 20.7712 20.4594 20.4195 20.1056L14.9457 14.5985C14.7882 14.44 14.6998 14.2251 14.6998 14.001C14.6998 13.7769 14.7882 13.562 14.9457 13.4035L20.4195 7.89647C20.7712 7.54156 20.741 6.9609 20.3569 6.64289ZM13.2304 7.97678C13.2304 7.32449 13.7558 6.79592 14.4042 6.79592C15.0525 6.79592 15.5779 7.32449 15.5779 7.97678C15.5779 8.62908 15.0525 9.15764 14.4042 9.15764C13.7558 9.15764 13.2304 8.62908 13.2304 7.97678Z" fill="#C58561"/>
<path d="M17.2414 14.0005C17.2414 14.3137 17.365 14.614 17.5852 14.8355C17.8053 15.0569 18.1038 15.1813 18.4151 15.1813C18.7264 15.1813 19.0249 15.0569 19.245 14.8355C19.4652 14.614 19.5888 14.3137 19.5888 14.0005C19.5888 13.6873 19.4652 13.3869 19.245 13.1655C19.0249 12.944 18.7264 12.8196 18.4151 12.8196C18.1038 12.8196 17.8053 12.944 17.5852 13.1655C17.365 13.3869 17.2414 13.6873 17.2414 14.0005Z" fill="#C58561"/>
<path d="M20.7539 14.0537C20.7539 14.2087 20.7843 14.3623 20.8433 14.5055C20.9022 14.6488 20.9887 14.779 21.0977 14.8886C21.2067 14.9983 21.3361 15.0853 21.4785 15.1446C21.6209 15.204 21.7735 15.2345 21.9276 15.2345C22.0818 15.2345 22.2344 15.204 22.3768 15.1446C22.5192 15.0853 22.6486 14.9983 22.7576 14.8886C22.8666 14.779 22.953 14.6488 23.012 14.5055C23.071 14.3623 23.1014 14.2087 23.1014 14.0537C23.1014 13.8986 23.071 13.745 23.012 13.6018C22.953 13.4585 22.8666 13.3283 22.7576 13.2187C22.6486 13.109 22.5192 13.022 22.3768 12.9627C22.2344 12.9033 22.0818 12.8728 21.9276 12.8728C21.7735 12.8728 21.6209 12.9033 21.4785 12.9627C21.3361 13.022 21.2067 13.109 21.0977 13.2187C20.9887 13.3283 20.9022 13.4585 20.8433 13.6018C20.7843 13.745 20.7539 13.8986 20.7539 14.0537Z" fill="#C58561"/>
</svg>