<svg width="24" height="24" viewBox="0 0 24 24" fill="none" xmlns="http://www.w3.org/2000/svg">
<g clip-path="url(#clip0)">
<path d="M20.4689 13.7984C19.9123 8.96023 18.9276 5.49219 15.802 5.49219C14.2179 5.49219 13.4044 7.11917 11.9915 7.24762C10.5358 7.11917 9.76508 5.49219 8.18091 5.49219C5.05539 5.49219 4.07064 8.96023 3.55685 13.7555C3.25714 16.3245 3.51404 18.4652 5.0982 18.4652C7.3246 18.4652 7.41023 16.4529 8.9944 15.511C9.59381 15.2113 10.9211 15.0828 12.0343 15.04C13.1475 15.0828 14.4748 15.2113 15.0742 15.511C16.6583 16.4529 16.744 18.4652 18.9704 18.4652C20.5117 18.508 20.7258 16.3673 20.4689 13.7984ZM8.22372 13.3702C6.98208 13.3702 5.99733 12.3426 5.99733 11.1438C5.99733 9.94498 6.98208 8.91741 8.22372 8.91741C9.46537 8.91741 10.4501 9.90217 10.4501 11.1438C10.4501 12.3855 9.42255 13.3702 8.22372 13.3702ZM18.1997 11.572H16.4443V13.3274H15.588V11.572H13.8325V10.7157H15.588V9.00304H16.4443V10.7157H18.1997V11.572Z" fill="#C58561"/>
<path d="M6.93923 11.1438C6.93923 11.4863 7.06767 11.786 7.32456 12.0429C7.53864 12.257 7.88116 12.4283 8.22369 12.4283C8.56621 12.4283 8.86592 12.2998 9.12281 12.0429C9.33688 11.8288 9.50815 11.4863 9.50815 11.1438C9.50815 10.8013 9.3797 10.5016 9.12281 10.2447C8.90873 10.0306 8.56621 9.85934 8.22369 9.85934C7.88116 9.85934 7.58146 9.98779 7.32456 10.2447C7.06767 10.4588 6.93923 10.8013 6.93923 11.1438Z" fill="#C58561"/>
</g>
<defs>
<clipPath id="clip0">
<rect width="17.1429" height="17.1429" fill="white" transform="translate(3.42847 3.42871)"/>
</clipPath>
</defs>
</svg>