<?xml version="1.0" encoding="utf-8"?>
<!-- Generator: Adobe Illustrator 24.1.1, SVG Export Plug-In . SVG Version: 6.00 Build 0)  -->
<svg version="1.1" id="Layer_1" xmlns="http://www.w3.org/2000/svg" xmlns:xlink="http://www.w3.org/1999/xlink" x="0px" y="0px"
	 viewBox="0 0 512 512" style="enable-background:new 0 0 512 512;" xml:space="preserve">
<style type="text/css">
	.st0{fill-rule:evenodd;clip-rule:evenodd;}
</style>
<g>
	<path class="st0" d="M282.8,52c-7.9-26.7-45.7-26.7-53.6,0l-3,10.2c-9.4,31.7-42.7,49.9-74.4,40.5c-4.1-1.2-8-2.8-11.7-4.9
		l-9.3-5.1c-24.5-13.3-51.2,13.5-37.9,37.9l5.1,9.3c15.8,29.1,5.1,65.5-24,81.3c-3.7,2-7.6,3.6-11.7,4.9l-10.2,3
		c-26.7,7.9-26.7,45.7,0,53.6l10.2,3c31.8,9.4,49.9,42.7,40.5,74.4c-1.2,4.1-2.8,8-4.9,11.7l-5.1,9.3
		c-13.3,24.5,13.5,51.2,37.9,37.9l9.3-5.1c29.1-15.8,65.5-5.1,81.3,24c2,3.7,3.7,7.6,4.9,11.7l3,10.2c7.9,26.7,45.7,26.7,53.6,0
		l3-10.2c9.4-31.8,42.7-49.9,74.4-40.5c4.1,1.2,8,2.8,11.7,4.9l9.3,5.1c24.5,13.3,51.2-13.5,37.9-37.9l-5.1-9.3
		c-15.8-29.1-5.1-65.5,24-81.3c3.7-2,7.7-3.7,11.8-4.9l10.2-3c26.7-7.9,26.7-45.7,0-53.6l-10.2-3c-31.7-9.4-49.9-42.7-40.5-74.4
		c1.2-4.1,2.8-8,4.9-11.7l5.1-9.3c13.3-24.5-13.5-51.2-37.9-37.9l-9.3,5.1c-29,15.9-65.5,5.2-81.3-23.9c-2-3.8-3.7-7.7-4.9-11.8
		L282.8,52L282.8,52z M198.5,43c16.9-57.3,98.1-57.3,115,0l3,10.2c4.4,14.8,19.9,23.3,34.7,18.9l5.5-2.3l9.3-5.1
		c52.5-28.5,109.9,28.8,81.3,81.3l-5.1,9.3c-7.4,13.6-2.4,30.5,11.2,37.9l5.5,2.3l10.2,3c57.3,16.9,57.3,98.1,0,115l-10.2,3
		c-14.8,4.4-23.3,19.9-18.9,34.7l2.3,5.5l5.1,9.3c28.6,52.5-28.9,109.9-81.3,81.3l-9.3-5.1c-13.6-7.4-30.5-2.4-37.9,11.2l-2.3,5.5
		l-3,10.2c-16.9,57.3-98.1,57.3-115,0l-3-10.2c-4.4-14.8-19.9-23.3-34.7-18.9l-5.5,2.3l-9.3,5.1C93.5,475.9,36.2,418.4,64.7,366
		l5.1-9.3c7.4-13.6,2.4-30.5-11.2-37.9l-5.5-2.3l-10.2-3c-57.3-16.9-57.3-98.1,0-115l10.2-3c14.8-4.4,23.3-19.9,18.9-34.7l-2.3-5.5
		l-5.1-9.3C36.2,93.5,93.6,36.2,146,64.7l9.3,5.1c13.6,7.4,30.5,2.4,37.9-11.2l2.3-5.5L198.5,43z"/>
	<path class="st0" d="M256,184.1c-39.7,0-71.9,32.2-71.9,71.9s32.2,71.9,71.9,71.9s71.9-32.2,71.9-71.9S295.7,184.1,256,184.1z
		 M152.1,256c0-57.4,46.5-103.9,103.9-103.9S359.9,198.6,359.9,256S313.4,359.9,256,359.9S152.1,313.4,152.1,256z"/>
</g>
</svg>
