<svg width="28" height="28" viewBox="0 0 28 28" fill="none" xmlns="http://www.w3.org/2000/svg">
<path fill-rule="evenodd" clip-rule="evenodd" d="M15.6572 6.65022C15.7895 5.39776 15.176 3.9556 13.9177 4.00934C10.4083 4.15923 7.05943 6.10762 5.2518 9.44865C2.50612 14.5234 4.35266 20.886 9.37158 23.6571C14.3905 26.4281 20.6921 24.5715 23.4378 19.4967C24.4142 17.6935 24.8103 15.7278 24.69 13.8183C24.6394 13.0136 23.7296 12.631 22.9522 12.8451C22.4618 12.9802 21.9453 13.0523 21.4119 13.0523C18.2158 13.0523 15.6249 10.4614 15.6249 7.26531C15.6249 7.05754 15.6359 6.85233 15.6572 6.65022ZM16.3539 10.7618C14.327 9.64169 11.7769 10.3986 10.6695 12.4432C9.56208 14.4879 10.3088 17.0634 12.3357 18.1835C14.3626 19.3036 16.9127 18.5467 18.0201 16.5021C19.1249 14.4574 18.3807 11.8819 16.3539 10.7618Z" fill="white"/>
</svg>