<svg width="28" height="28" viewBox="0 0 28 28" fill="none" xmlns="http://www.w3.org/2000/svg">
<path d="M23.6398 5.0184V4.74432C23.6398 4.74432 23.6398 4.60726 23.5027 4.60726L23.3657 4.47021H20.3507C19.8026 4.33318 19.5285 4.60726 19.5285 5.0184C19.5285 5.42953 19.8026 5.70361 20.2137 5.70361H21.31L17.1987 9.81493L14.1838 6.93701C13.9097 6.66293 13.4985 6.66293 13.2244 6.93701L5.96111 14.2004C5.68701 14.4744 5.68701 14.8856 5.96111 15.1596C6.23519 15.4338 6.64632 15.4338 6.92041 15.1596L13.7726 8.4445L16.6505 11.3224C16.9246 11.5965 17.3358 11.5965 17.6098 11.3224L22.2693 6.66293V7.75927C22.2693 8.1704 22.5434 8.4445 22.9546 8.4445C23.3657 8.4445 23.6398 8.1704 23.6398 7.75927V5.0184Z" fill="#C58561"/>
<path d="M7.87972 16.8042H6.50927C5.41293 16.8042 4.45361 17.7635 4.45361 18.8598V21.4637C4.45361 22.56 5.41293 23.5193 6.50927 23.5193H7.87972C8.97607 23.5193 9.93538 22.56 9.93538 21.4637V18.8598C9.93538 17.7635 8.97607 16.8042 7.87972 16.8042Z" fill="#C58561"/>
<path d="M14.7319 14.0633H13.3615C12.2651 14.0633 11.3058 15.0226 11.3058 16.119V21.4637C11.3058 22.56 12.2651 23.5193 13.3615 23.5193H14.7319C15.8283 23.5193 16.7876 22.56 16.7876 21.4637V16.119C16.7876 15.0226 15.8283 14.0633 14.7319 14.0633Z" fill="#C58561"/>
<path d="M21.5841 11.3224H20.2137C19.1173 11.3224 18.158 12.2817 18.158 13.3781V21.4637C18.158 22.56 19.1173 23.5193 20.2137 23.5193H21.5841C22.6805 23.5193 23.6398 22.56 23.6398 21.4637V13.3781C23.6398 12.2817 22.6805 11.3224 21.5841 11.3224Z" fill="#C58561"/>
</svg>