<svg width="24" height="24" viewBox="0 0 24 24" fill="none" xmlns="http://www.w3.org/2000/svg">
<path d="M5.48468 12.5207C5.63096 11.6398 5.95378 10.7976 6.43373 10.0447C6.91368 9.29171 7.54086 8.64352 8.27761 8.13904C8.10455 7.80879 7.97215 7.45879 7.88331 7.09668C6.92684 7.70655 6.11642 8.51956 5.50961 9.47798C4.90281 10.4364 4.51451 11.5167 4.37231 12.6421C4.70683 12.5613 5.04976 12.5205 5.39389 12.5207H5.48468ZM18.5886 12.5207C18.973 12.5305 19.3476 12.5912 19.7119 12.6924C19.5803 11.6013 19.2181 10.5507 18.6494 9.61038C18.0806 8.67003 17.3183 7.86144 16.4131 7.23832C16.3128 7.59634 16.1666 7.93989 15.9783 8.26045C17.3655 9.29053 18.3008 10.817 18.5886 12.5207ZM14.9562 19.5831C14.0457 20.0286 13.0456 20.2605 12.032 20.2613C10.9185 20.2613 9.8767 19.9878 8.96559 19.5022C8.74427 19.8063 8.48598 20.0817 8.19668 20.322C9.36408 20.9913 10.6863 21.3437 12.032 21.3441C13.3773 21.3441 14.6423 20.9996 15.7453 20.3925C15.4476 20.1589 15.1822 19.8867 14.9562 19.5831Z" fill="#C58561"/>
<path d="M8.68335 5.92221C8.68335 6.85962 9.05573 7.75864 9.71858 8.42148C10.3814 9.08433 11.2804 9.45672 12.2179 9.45672C13.1553 9.45672 14.0543 9.08433 14.7171 8.42148C15.38 7.75864 15.7524 6.85962 15.7524 5.92221C15.7524 4.9848 15.38 4.08578 14.7171 3.42293C14.0543 2.76008 13.1553 2.3877 12.2179 2.3877C11.2804 2.3877 10.3814 2.76008 9.71858 3.42293C9.05573 4.08578 8.68335 4.9848 8.68335 5.92221Z" fill="#C58561"/>
<path d="M1.7915 16.9496C1.7915 17.4137 1.88293 17.8733 2.06055 18.3022C2.23818 18.731 2.49853 19.1206 2.82674 19.4488C3.15495 19.777 3.54459 20.0374 3.97342 20.215C4.40224 20.3926 4.86186 20.4841 5.32602 20.4841C5.79017 20.4841 6.24979 20.3926 6.67861 20.215C7.10744 20.0374 7.49708 19.777 7.82529 19.4488C8.1535 19.1206 8.41385 18.731 8.59148 18.3022C8.7691 17.8733 8.86053 17.4137 8.86053 16.9496C8.86053 16.0121 8.48814 15.1131 7.82529 14.4503C7.16244 13.7874 6.26343 13.415 5.32602 13.415C4.3886 13.415 3.48959 13.7874 2.82674 14.4503C2.16389 15.1131 1.7915 16.0121 1.7915 16.9496Z" fill="#C58561"/>
<path d="M14.9309 16.9496C14.9309 17.4137 15.0223 17.8733 15.2 18.3022C15.3776 18.731 15.6379 19.1206 15.9661 19.4488C16.2944 19.777 16.684 20.0374 17.1128 20.215C17.5416 20.3926 18.0013 20.4841 18.4654 20.4841C18.9296 20.4841 19.3892 20.3926 19.818 20.215C20.2468 20.0374 20.6365 19.777 20.9647 19.4488C21.2929 19.1206 21.5533 18.731 21.7309 18.3022C21.9085 17.8733 21.9999 17.4137 21.9999 16.9496C21.9999 16.4854 21.9085 16.0258 21.7309 15.597C21.5533 15.1681 21.2929 14.7785 20.9647 14.4503C20.6365 14.1221 20.2468 13.8617 19.818 13.6841C19.3892 13.5065 18.9296 13.415 18.4654 13.415C18.0013 13.415 17.5416 13.5065 17.1128 13.6841C16.684 13.8617 16.2944 14.1221 15.9661 14.4503C15.6379 14.7785 15.3776 15.1681 15.2 15.597C15.0223 16.0258 14.9309 16.4854 14.9309 16.9496Z" fill="#C58561"/>
</svg>