<svg width="28" height="28" viewBox="0 0 28 28" fill="none" xmlns="http://www.w3.org/2000/svg">
<path d="M7.13709 9.77123C7.14815 9.66227 7.13334 9.55224 7.09386 9.45008C7.05438 9.34792 6.99134 9.25653 6.90988 9.18333L5.23014 7.15865V6.85645H10.4471L14.4799 15.7013L18.0254 6.85645H23.0001V7.15865L21.5626 8.53618C21.5018 8.58257 21.4548 8.64463 21.4267 8.71572C21.3985 8.7868 21.3903 8.8642 21.4028 8.93962V19.063C21.3904 19.1383 21.3987 19.2156 21.4269 19.2865C21.455 19.3574 21.5019 19.4194 21.5626 19.4657L22.9648 20.8432V21.1454H15.9085V20.8432L17.361 19.432C17.5034 19.2895 17.5034 19.2475 17.5034 19.0285V10.8466L13.4616 21.1109H12.9164L8.21092 10.8466V17.726C8.17193 18.0154 8.26791 18.3064 8.47113 18.5156L10.3608 20.8102V21.1117H5.00293V20.8095L6.89263 18.5148C7.0951 18.3064 7.18508 18.0124 7.13709 17.726V9.77123Z" fill="#C58561"/>
</svg>