<svg width="24" height="24" viewBox="0 0 24 24" fill="none" xmlns="http://www.w3.org/2000/svg">
<path d="M4.68158 5.82784C4.68158 6.33385 4.87931 6.81914 5.23128 7.17694C5.58324 7.53474 6.06061 7.73576 6.55836 7.73576C7.05611 7.73576 7.53347 7.53474 7.88544 7.17694C8.2374 6.81914 8.43513 6.33385 8.43513 5.82784C8.43513 5.32183 8.2374 4.83654 7.88544 4.47874C7.53347 4.12093 7.05611 3.91992 6.55836 3.91992C6.06061 3.91992 5.58324 4.12093 5.23128 4.47874C4.87931 4.83654 4.68158 5.32183 4.68158 5.82784Z" fill="#C58561"/>
<path d="M7.15736 11.2315C8.55 11.2315 9.89678 14.6625 11.792 14.6625C13.6874 14.6625 14.2839 8.88357 16.4342 8.88357C18.5848 8.88357 20.235 13.491 20.81 15.4819C21.3853 17.4727 20.7274 18.1064 17.8209 18.1064C14.9142 18.1064 5.68402 17.9821 4.52693 17.9821C3.36955 17.9821 2.67252 17.1101 3.46185 15.4298C4.25089 13.7492 5.76471 11.2315 7.15736 11.2315Z" fill="#C58561"/>
</svg>