<svg width="28" height="28" viewBox="0 0 28 28" fill="none" xmlns="http://www.w3.org/2000/svg">
<path d="M8.89918 4.77539C11.134 4.77539 12.9435 6.56695 12.9435 8.80225V12.8466H8.89918C6.66433 12.8466 4.87231 11.0376 4.87231 8.80225C4.87231 6.56695 6.66387 4.77539 8.89918 4.77539Z" fill="#C58561"/>
<path d="M4.97865 19.0733C4.97865 16.8385 6.78816 15.0281 9.02346 15.0281H13.0503V19.0733C13.0503 21.2902 11.2408 23.0997 9.02346 23.0997C6.78816 23.0997 4.97865 21.2902 4.97865 19.0733Z" fill="#C58561"/>
<path d="M19.2407 4.77539C17.0058 4.77539 15.2143 6.56695 15.2143 8.80225V12.8466H19.2407C21.4755 12.8466 23.285 11.0376 23.285 8.80225C23.285 6.56695 21.4755 4.77539 19.2407 4.77539Z" fill="#C58561"/>
<path d="M23.1612 19.0733C23.1612 16.8385 21.3692 15.0281 19.1343 15.0281H15.0895V19.0733C15.0895 21.2902 16.8995 23.0997 19.1343 23.0997C21.3692 23.0997 23.1612 21.2902 23.1612 19.0733Z" fill="#C58561"/>
</svg>