<svg width="24" height="24" viewBox="0 0 24 24" fill="none" xmlns="http://www.w3.org/2000/svg">
<path d="M12.592 10.7455L11.9997 11.3369C11.8452 11.4969 11.6603 11.6246 11.4559 11.7124C11.2515 11.8002 11.0316 11.8464 10.8092 11.8483C10.5867 11.8503 10.3661 11.8079 10.1602 11.7236C9.95425 11.6394 9.76718 11.515 9.60987 11.3577C9.45255 11.2004 9.32814 11.0133 9.2439 10.8074C9.15966 10.6015 9.11726 10.3808 9.1192 10.1584C9.12113 9.93591 9.16735 9.71605 9.25516 9.51164C9.34297 9.30723 9.47061 9.12235 9.63063 8.96779L14.3471 4.24967C15.4637 3.99569 16.632 4.10021 17.6858 4.54838C18.7396 4.99655 19.6253 5.76555 20.217 6.74603C20.8086 7.72651 21.0761 8.86856 20.9814 10.0098C20.8866 11.151 20.4345 12.2333 19.6893 13.1028L18.2199 14.5915C18.1811 14.6309 18.1349 14.6622 18.0839 14.6836C18.0329 14.705 17.9782 14.7161 17.9229 14.7162C17.8676 14.7164 17.8128 14.7056 17.7617 14.6845C17.7106 14.6634 17.6642 14.6323 17.6251 14.5932L13.7766 10.7446C13.6194 10.5877 13.4063 10.4996 13.1841 10.4998C12.962 10.4999 12.749 10.5883 12.592 10.7455ZM11.3044 4.92321L8.44524 7.78323C7.82599 8.40125 7.47299 9.23695 7.46169 10.1118C7.45038 10.9866 7.78166 11.8311 8.38474 12.4649C8.98782 13.0988 9.81486 13.4716 10.6892 13.5037C11.5635 13.5359 12.4157 13.2249 13.0637 12.6371L13.1843 12.5223L16.4431 15.7794C16.4821 15.8183 16.513 15.8645 16.5342 15.9154C16.5553 15.9663 16.5662 16.0209 16.5662 16.076C16.5662 16.1311 16.5553 16.1856 16.5342 16.2365C16.513 16.2874 16.4821 16.3336 16.4431 16.3725L13.1843 19.6305C12.8701 19.9446 12.444 20.121 11.9997 20.121C11.5555 20.121 11.1294 19.9446 10.8152 19.6305L4.59417 13.4095C3.64813 12.4661 3.08194 11.2078 3.00334 9.87406C2.92473 8.54034 3.3392 7.22427 4.16787 6.17627C4.99654 5.12828 6.18158 4.42151 7.49748 4.19046C8.81338 3.95941 10.1683 4.2202 11.3044 4.92321Z" fill="white"/>
</svg>