<svg width="28" height="28" viewBox="0 0 28 28" fill="none" xmlns="http://www.w3.org/2000/svg">
<g clip-path="url(#clip0)">
<path d="M22.9861 5.76829L20.4172 21.1836C20.3838 21.3768 20.2749 21.5279 20.0957 21.6351C20.0025 21.6861 19.8971 21.716 19.7847 21.716C19.7109 21.716 19.63 21.6984 19.5439 21.665L15.3831 19.9641C15.1546 19.871 14.8928 19.9377 14.7364 20.1275L12.5699 22.7702C12.4487 22.9249 12.2835 23.0004 12.0779 23.0004C11.9918 23.0004 11.918 22.9864 11.8547 22.96C11.7282 22.9126 11.6263 22.837 11.549 22.7246C11.4717 22.6139 11.4313 22.4926 11.4313 22.3573V19.2577C11.4313 18.9977 11.5209 18.7482 11.6843 18.5461L20.1027 8.2265L9.50547 17.3987C9.42464 17.4672 9.31219 17.4866 9.21555 17.4461L5.41137 15.8876C5.16361 15.7944 5.02832 15.6117 5.01074 15.3341C4.99669 15.067 5.10387 14.8684 5.3323 14.7402L22.032 5.10585C22.1339 5.04435 22.2394 5.01624 22.3536 5.01624C22.4889 5.01624 22.6101 5.05489 22.7173 5.12869C22.9405 5.28683 23.0266 5.50296 22.9861 5.76829Z" fill="#D19C7D"/>
</g>
<defs>
<clipPath id="clip0">
<rect width="18" height="18" fill="white" transform="translate(5 5)"/>
</clipPath>
</defs>
</svg>