<svg width="28" height="28" viewBox="0 0 28 28" fill="none" xmlns="http://www.w3.org/2000/svg">
<path d="M5.61443 19.188C5.29516 19.1879 4.98307 19.0931 4.71763 18.9157C4.45218 18.7383 4.2453 18.4862 4.12313 18.1912C4.00095 17.8962 3.96898 17.5716 4.03125 17.2585C4.09351 16.9453 4.24723 16.6577 4.47295 16.4319L11.5782 9.32876L9.45095 6.82018C9.25363 6.58776 9.12616 6.30421 9.08332 6.00234C9.04047 5.70048 9.08399 5.39266 9.20884 5.1145C9.3337 4.83635 9.53477 4.59924 9.7888 4.43063C10.0428 4.26202 10.3394 4.16881 10.6442 4.16177L17.5356 4.00141C17.858 3.99396 18.1752 4.08323 18.4463 4.25771C18.7175 4.43219 18.9302 4.68387 19.057 4.98033C19.1838 5.27678 19.2189 5.60442 19.1578 5.92102C19.0967 6.23761 18.9422 6.52865 18.7142 6.75663L14.926 10.5447L14.9029 10.5679L6.75592 18.7149C6.60621 18.865 6.4283 18.9842 6.2324 19.0653C6.0365 19.1465 5.82649 19.1882 5.61443 19.188Z" fill="#C58561"/>
<path d="M10.4269 23.9992C10.1077 23.9992 9.79563 23.9044 9.53021 23.7271C9.26479 23.5497 9.05793 23.2975 8.93579 23.0026C8.81365 22.7076 8.78172 22.3831 8.84404 22.07C8.90635 21.7569 9.06011 21.4693 9.28587 21.2436L12.8513 17.6777L12.8652 17.6642L21.2441 9.28532C21.5468 8.98258 21.9574 8.8125 22.3856 8.8125C22.8137 8.8125 23.2243 8.98258 23.5271 9.28532C23.8298 9.58806 23.9999 9.99866 23.9999 10.4268C23.9999 10.8549 23.8298 11.2655 23.5271 11.5683L16.2669 18.828L18.4754 21.1009C18.6945 21.3261 18.843 21.6103 18.9029 21.9187C18.9628 22.2271 18.9314 22.5463 18.8125 22.8371C18.6937 23.1279 18.4925 23.3777 18.2338 23.5559C17.975 23.734 17.6699 23.8328 17.3558 23.8401L10.4644 23.9988L10.4269 23.9992Z" fill="#C58561"/>
</svg>