<svg width="28" height="28" viewBox="0 0 28 28" fill="none" xmlns="http://www.w3.org/2000/svg">
<path d="M22.9999 8.42318C22.3377 8.70882 21.6172 8.91439 20.8749 8.99445C21.641 8.53787 22.2231 7.81728 22.4979 6.96037C21.7903 7.38233 20.9896 7.69177 20.1565 7.8519C19.4814 7.13131 18.5227 6.68555 17.4603 6.68555C15.4154 6.68555 13.7708 8.34311 13.7708 10.3772C13.7708 10.6628 13.8054 10.9485 13.8617 11.2233C10.7997 11.0632 8.06883 9.60035 6.2533 7.36069C5.93304 7.91033 5.75127 8.53786 5.75127 9.22383C5.75127 10.5049 6.40261 11.6344 7.39585 12.2988C6.78995 12.275 6.21868 12.104 5.72747 11.8292V11.8746C5.72747 13.6685 6.99553 15.1551 8.68555 15.497C8.37611 15.5771 8.04503 15.6226 7.71395 15.6226C7.47375 15.6226 7.24654 15.5987 7.01716 15.5663C7.48457 17.0291 8.84568 18.0916 10.4665 18.1262C9.1984 19.1195 7.61008 19.7037 5.88543 19.7037C5.57599 19.7037 5.29035 19.6929 4.9939 19.6583C6.62982 20.7078 8.57086 21.3137 10.6612 21.3137C17.4473 21.3137 21.1606 15.6918 21.1606 10.8121C21.1606 10.652 21.1606 10.4919 21.1497 10.3318C21.8682 9.80592 22.4979 9.15458 22.9999 8.42318Z" fill="#C58561"/>
</svg>