<svg width="36" height="36" viewBox="0 0 36 36" fill="none" xmlns="http://www.w3.org/2000/svg">
<path d="M25.4005 17.4691C25.629 17.4093 25.8611 17.5535 25.9173 17.7855L26.29 19.3253C26.3462 19.5538 26.2056 19.7894 25.9771 19.8456C25.7486 19.9054 25.5165 19.7613 25.4603 19.5292L25.0876 17.9894C25.0314 17.7609 25.172 17.5253 25.4005 17.4691V17.4691ZM13.8517 6.20853C13.7216 6.00463 13.7814 5.74095 13.9712 5.61088L15.2861 4.74252C15.4865 4.61244 15.7501 4.6722 15.8802 4.86556C16.0103 5.06947 15.9505 5.33314 15.7607 5.46322L14.4458 6.33158C14.249 6.46517 13.9853 6.40541 13.8517 6.20853Z" fill="white"/>
<path fill-rule="evenodd" clip-rule="evenodd" d="M20.6434 11.5917C19.1218 11.249 17.489 11.5309 16.1509 12.4383C18.1653 11.7633 20.4821 12.2309 22.0853 13.8516C24.3423 16.1332 24.3423 19.8493 22.0853 22.1309C21.8146 22.4051 21.5192 22.6477 21.2063 22.8551C22.0325 22.5704 22.813 22.1063 23.4704 21.4418C25.0664 19.8285 25.5338 17.4979 24.8727 15.4644C23.0312 14.7382 21.5235 13.3494 20.6434 11.5917Z" fill="#FFAE54"/>
<path d="M30.1391 24.6827L30.139 24.6829C26.4804 31.4451 18.0878 33.9152 11.4055 30.2257C4.72066 26.5349 2.25632 18.0551 5.91705 11.289C8.3257 6.8371 12.7861 4.24242 17.46 4.04279C18.0802 4.0163 18.5608 4.34307 18.8947 4.9226C19.2368 5.51613 19.3891 6.33108 19.3076 7.10189C19.2761 7.40045 19.2599 7.70343 19.2599 8.01C19.2599 9.44884 19.6153 10.8047 20.2432 11.9945C17.337 10.8971 13.993 12.1007 12.4661 14.9198C10.7933 18.0084 11.919 21.9 14.986 23.5949C18.0568 25.2919 21.9158 24.1432 23.59 21.0521L23.5902 21.0516C24.527 19.318 24.5845 17.3311 23.9119 15.6217C25.0807 16.2215 26.4058 16.56 27.8099 16.56C28.5971 16.56 29.3602 16.4535 30.0853 16.2538C30.4996 16.1397 30.9438 16.1885 31.2757 16.3585C31.5965 16.5228 31.7874 16.781 31.8084 17.1142C31.9687 19.6594 31.4409 22.2789 30.1391 24.6827Z" fill="url(#paint0_radial)" stroke="#AC562A" stroke-width="1.08"/>
<mask id="path-4-inside-1" fill="white">
<path d="M19.9024 6.72876C20.1406 5.23549 19.3886 3.48474 17.8765 3.49692C16.0026 3.51203 14.1303 3.89575 12.375 4.6477C9.05978 6.21919 11.0672 13.7989 16.9699 12.2309C18.7735 11.911 20.6895 12.4524 22.0817 13.8551C24.2367 16.0348 24.3647 19.4809 22.41 21.7801C22.7932 21.8504 23.4668 21.6879 24.5215 21.027C25.3547 20.5067 26.2934 21.0235 26.5992 21.8989C26.8804 22.6993 26.5152 23.4003 26.1496 24.1018C25.9484 24.4879 25.7471 24.8742 25.6535 25.2774C25.3828 26.4481 25.6817 27.661 26.9438 27.995C27.4957 28.1391 28.1637 27.8965 28.8422 27.4641C31.3698 24.5065 32.522 20.7677 32.3003 17.0991C32.2331 15.9869 30.9792 15.4532 29.9035 15.7437C29.2362 15.9239 28.5343 16.0201 27.81 16.0201C23.3862 16.0201 19.8 12.4339 19.8 8.01005C19.8 7.57891 19.8353 7.14911 19.9024 6.72876Z"/>
</mask>
<path d="M19.9024 6.72876C20.1406 5.23549 19.3886 3.48474 17.8765 3.49692C16.0026 3.51203 14.1303 3.89575 12.375 4.6477C9.05978 6.21919 11.0672 13.7989 16.9699 12.2309C18.7735 11.911 20.6895 12.4524 22.0817 13.8551C24.2367 16.0348 24.3647 19.4809 22.41 21.7801C22.7932 21.8504 23.4668 21.6879 24.5215 21.027C25.3547 20.5067 26.2934 21.0235 26.5992 21.8989C26.8804 22.6993 26.5152 23.4003 26.1496 24.1018C25.9484 24.4879 25.7471 24.8742 25.6535 25.2774C25.3828 26.4481 25.6817 27.661 26.9438 27.995C27.4957 28.1391 28.1637 27.8965 28.8422 27.4641C31.3698 24.5065 32.522 20.7677 32.3003 17.0991C32.2331 15.9869 30.9792 15.4532 29.9035 15.7437C29.2362 15.9239 28.5343 16.0201 27.81 16.0201C23.3862 16.0201 19.8 12.4339 19.8 8.01005C19.8 7.57891 19.8353 7.14911 19.9024 6.72876Z" fill="#AC562A"/>
<path d="M12.375 4.6477L11.9497 3.65496L11.9309 3.66302L11.9124 3.67179L12.375 4.6477ZM16.9699 12.2309L16.7813 11.1675L16.7366 11.1754L16.6927 11.1871L16.9699 12.2309ZM22.0817 13.8551L22.8497 13.0958L22.8482 13.0943L22.0817 13.8551ZM22.41 21.7801L21.5872 21.0806L20.3762 22.5049L22.2151 22.8424L22.41 21.7801ZM24.5215 21.027L23.9494 20.1109L23.948 20.1118L24.5215 21.027ZM26.5992 21.8989L25.5797 22.2551L25.5803 22.2568L26.5992 21.8989ZM26.1496 24.1018L27.1074 24.6008L27.1074 24.6008L26.1496 24.1018ZM25.6535 25.2774L24.6015 25.0331L24.6013 25.0341L25.6535 25.2774ZM26.9438 27.995L26.6675 29.039L26.6709 29.0399L26.9438 27.995ZM28.8422 27.4641L29.4226 28.3749L29.5585 28.2883L29.6632 28.1658L28.8422 27.4641ZM32.3003 17.0991L31.2223 17.1643L32.3003 17.0991ZM29.9035 15.7437L29.622 14.701L29.9035 15.7437ZM17.8765 3.49692L17.8678 2.41696L17.8765 3.49692ZM19.9024 6.72876L18.8359 6.55861L19.9024 6.72876ZM17.8678 2.41696C15.8524 2.4332 13.8384 2.84589 11.9497 3.65496L12.8003 5.64045C14.4223 4.94562 16.1528 4.59085 17.8852 4.57689L17.8678 2.41696ZM11.9124 3.67179C10.7086 4.24242 10.0434 5.34132 9.80625 6.49935C9.57122 7.6469 9.73385 8.91856 10.2255 10.0478C10.7199 11.1832 11.5742 12.2355 12.7879 12.8818C14.0178 13.5367 15.5336 13.7299 17.2472 13.2747L16.6927 11.1871C15.4549 11.5159 14.5063 11.3496 13.8032 10.9752C13.084 10.5922 12.5368 9.94536 12.2059 9.18544C11.8723 8.41927 11.7858 7.59936 11.9223 6.93274C12.0567 6.27659 12.3838 5.83873 12.8376 5.62361L11.9124 3.67179ZM17.1586 13.2943C18.626 13.034 20.1814 13.4736 21.3151 14.6159L22.8482 13.0943C21.1975 11.4312 18.9209 10.788 16.7813 11.1675L17.1586 13.2943ZM21.3137 14.6145C23.0783 16.3992 23.1757 19.212 21.5872 21.0806L23.2328 22.4796C25.5537 19.7497 25.3952 15.6704 22.8497 13.0958L21.3137 14.6145ZM22.2151 22.8424C22.6488 22.9219 23.1069 22.8498 23.5512 22.7037C24.0063 22.5542 24.5187 22.3033 25.095 21.9421L23.948 20.1118C23.4697 20.4116 23.1179 20.5725 22.8767 20.6518C22.6247 20.7346 22.5545 20.7086 22.6049 20.7178L22.2151 22.8424ZM25.0935 21.9431C25.1525 21.9063 25.191 21.9002 25.2114 21.8991C25.2342 21.8979 25.2654 21.9017 25.3065 21.9206C25.3959 21.9617 25.5154 22.0711 25.5797 22.2551L27.6188 21.5426C27.3772 20.8513 26.8745 20.2645 26.2098 19.9585C25.5186 19.6403 24.6895 19.6488 23.9494 20.1109L25.0935 21.9431ZM25.5803 22.2568C25.6824 22.5475 25.5992 22.821 25.1918 23.6027L27.1074 24.6008C27.4311 23.9796 28.0784 22.8511 27.6182 21.5409L25.5803 22.2568ZM25.1918 23.6027C25.0041 23.9631 24.7317 24.4727 24.6015 25.0331L26.7055 25.5217C26.7626 25.2758 26.8928 25.0128 27.1074 24.6008L25.1918 23.6027ZM24.6013 25.0341C24.4321 25.7657 24.4174 26.6 24.7226 27.3548C25.0462 28.1552 25.7011 28.7833 26.6675 29.039L27.22 26.9509C26.9243 26.8726 26.7988 26.7273 26.7251 26.5451C26.633 26.3173 26.6042 25.9598 26.7058 25.5207L24.6013 25.0341ZM26.6709 29.0399C27.6882 29.3056 28.6997 28.8356 29.4226 28.3749L28.2618 26.5533C27.6277 26.9574 27.3032 26.9726 27.2166 26.95L26.6709 29.0399ZM29.6632 28.1658C32.38 24.9867 33.6162 20.9701 33.3784 17.034L31.2223 17.1643C31.4278 20.5652 30.3595 24.0262 28.0212 26.7625L29.6632 28.1658ZM29.622 14.701C29.0456 14.8567 28.4384 14.9401 27.81 14.9401V17.1001C28.6303 17.1001 29.4268 16.9911 30.1851 16.7863L29.622 14.701ZM27.81 14.9401C23.9827 14.9401 20.88 11.8374 20.88 8.01005H18.72C18.72 13.0303 22.7897 17.1001 27.81 17.1001V14.9401ZM20.88 8.01005C20.88 7.63764 20.9106 7.26474 20.9689 6.8989L18.8359 6.55861C18.7601 7.03348 18.72 7.52018 18.72 8.01005H20.88ZM33.3784 17.034C33.3178 16.0312 32.7064 15.3139 31.9765 14.9362C31.2685 14.5698 30.4072 14.489 29.622 14.701L30.1851 16.7863C30.4756 16.7079 30.7791 16.7487 30.9838 16.8546C31.1665 16.9492 31.2157 17.0548 31.2223 17.1643L33.3784 17.034ZM17.8852 4.57689C18.1518 4.57474 18.3965 4.70465 18.6025 5.0742C18.8213 5.46654 18.9204 6.02902 18.8359 6.55861L20.9689 6.8989C21.1226 5.93522 20.9649 4.87569 20.4891 4.02239C20.0007 3.14629 19.1134 2.40692 17.8678 2.41696L17.8852 4.57689Z" fill="#AC562A" mask="url(#path-4-inside-1)"/>
<circle cx="7.56009" cy="14.7599" r="0.72" fill="#AC562A"/>
<circle cx="18" cy="27.36" r="0.72" fill="#AC562A"/>
<circle cx="13.5902" cy="27.9901" r="1.17" fill="#AC562A"/>
<defs>
<radialGradient id="paint0_radial" cx="0" cy="0" r="1" gradientUnits="userSpaceOnUse" gradientTransform="translate(18.0288 17.9838) rotate(90) scale(14.4935 14.3474)">
<stop offset="0.333505" stop-color="#F7B450"/>
<stop offset="0.64773" stop-color="#FFC977"/>
<stop offset="1" stop-color="#FF9900"/>
</radialGradient>
</defs>
</svg>