<svg width="135" height="21" viewBox="0 0 135 21" fill="none" xmlns="http://www.w3.org/2000/svg">
<path d="M5.02241 13.0233C5.24467 13.0868 5.53043 13.1345 5.87969 13.1662C6.22896 13.1821 6.56234 13.19 6.87986 13.19C7.51488 13.19 8.03877 13.063 8.45154 12.809C8.88018 12.5391 9.0945 12.1264 9.0945 11.5707C9.0945 11.0468 8.91987 10.6737 8.57061 10.4515C8.22134 10.2292 7.68951 10.1181 6.97511 10.1181H5.02241V13.0233ZM5.02241 7.21286H6.76079C7.44344 7.21286 7.93558 7.08586 8.23722 6.83185C8.55473 6.57784 8.71349 6.20477 8.71349 5.71262C8.71349 5.28398 8.53092 4.94266 8.16578 4.68865C7.81652 4.43464 7.28468 4.30763 6.57028 4.30763C6.33215 4.30763 6.05433 4.31557 5.73681 4.33145C5.43518 4.34732 5.19704 4.37114 5.02241 4.40289V7.21286ZM6.57028 16.381C6.3004 16.381 5.98289 16.3731 5.61775 16.3572C5.25261 16.3413 4.87159 16.3096 4.47471 16.2619C4.09369 16.2143 3.71268 16.1508 3.33166 16.0714C2.95065 16.0079 2.60139 15.9127 2.28387 15.7857C1.41072 15.4523 0.974139 14.8728 0.974139 14.0473V2.92646C0.974139 2.59307 1.06145 2.33906 1.23609 2.16443C1.42659 1.97392 1.6806 1.8231 1.99811 1.71198C2.53788 1.52147 3.2126 1.38653 4.02225 1.30715C4.83191 1.21189 5.66537 1.16427 6.52266 1.16427C8.55473 1.16427 10.1185 1.50559 11.2139 2.18824C12.3093 2.87089 12.857 3.92662 12.857 5.35542C12.857 6.06982 12.6506 6.68897 12.2379 7.21286C11.8251 7.72088 11.2695 8.09396 10.5709 8.33209C11.3647 8.55435 12.0235 8.95918 12.5474 9.54658C13.0872 10.134 13.3571 10.8722 13.3571 11.7612C13.3571 13.3329 12.7697 14.4998 11.5949 15.2618C10.436 16.0079 8.76111 16.381 6.57028 16.381ZM20.3616 13.4282C20.6315 13.4282 20.9252 13.4043 21.2427 13.3567C21.5761 13.2932 21.8221 13.2138 21.9809 13.1186V11.2135L20.2663 11.3564C19.8218 11.3881 19.4567 11.4834 19.1709 11.6422C18.8851 11.8009 18.7423 12.039 18.7423 12.3566C18.7423 12.6741 18.8613 12.936 19.0995 13.1424C19.3535 13.3329 19.7742 13.4282 20.3616 13.4282ZM20.1711 4.0695C21.0283 4.0695 21.8063 4.15681 22.5048 4.33145C23.2192 4.50608 23.8225 4.77596 24.3146 5.1411C24.8226 5.49036 25.2116 5.94282 25.4814 6.49846C25.7513 7.03823 25.8863 7.68119 25.8863 8.42735V13.7615C25.8863 14.1743 25.7672 14.5156 25.5291 14.7855C25.3068 15.0395 25.0369 15.2618 24.7194 15.4523C23.6875 16.0714 22.2349 16.381 20.3616 16.381C19.5202 16.381 18.7581 16.3016 18.0755 16.1429C17.4087 15.9841 16.8293 15.746 16.3371 15.4285C15.8608 15.111 15.4878 14.7061 15.2179 14.214C14.9639 13.7219 14.8369 13.1503 14.8369 12.4994C14.8369 11.404 15.1623 10.5626 15.8132 9.97522C16.4641 9.38782 17.4722 9.02268 18.8375 8.8798L21.9571 8.54641V8.37972C21.9571 7.91933 21.7507 7.59388 21.3379 7.40337C20.941 7.19699 20.3616 7.0938 19.5995 7.0938C18.9963 7.0938 18.4089 7.1573 17.8374 7.2843C17.2658 7.41131 16.7499 7.57007 16.2895 7.76057C16.0831 7.61769 15.9085 7.40337 15.7656 7.11761C15.6227 6.81598 15.5513 6.5064 15.5513 6.18889C15.5513 5.77612 15.6465 5.45068 15.837 5.21254C16.0434 4.95853 16.353 4.74421 16.7658 4.56958C17.2261 4.39495 17.7659 4.26794 18.3851 4.18857C19.0201 4.10919 19.6154 4.0695 20.1711 4.0695ZM39.6729 13.9044C39.5935 14.6506 39.3713 15.2221 39.0061 15.619C38.6569 16.0159 38.1409 16.2143 37.4583 16.2143C36.9503 16.2143 36.4978 16.0953 36.1009 15.8571C35.704 15.6031 35.2754 15.1824 34.815 14.595L32.4575 11.6422V15.9762C32.2828 16.0079 32.0209 16.0476 31.6716 16.0953C31.3382 16.1588 30.9969 16.1905 30.6476 16.1905C30.2984 16.1905 29.9809 16.1667 29.6951 16.1191C29.4252 16.0714 29.195 15.9762 29.0045 15.8333C28.814 15.6904 28.6632 15.4999 28.5521 15.2618C28.4568 15.0078 28.4092 14.6823 28.4092 14.2854V0.497493C28.5838 0.449866 28.8378 0.40224 29.1712 0.354613C29.5205 0.291111 29.8697 0.25936 30.219 0.25936C30.5683 0.25936 30.8778 0.283173 31.1477 0.330799C31.4335 0.378426 31.6716 0.47368 31.8621 0.61656C32.0526 0.75944 32.1955 0.957885 32.2908 1.21189C32.4019 1.45003 32.4575 1.76754 32.4575 2.16443V8.45116L36.5534 4.26001C37.3789 4.26001 38.0377 4.44258 38.5299 4.80771C39.0379 5.17285 39.2919 5.63324 39.2919 6.18889C39.2919 6.42702 39.2522 6.64928 39.1728 6.85566C39.0935 7.04617 38.9665 7.24462 38.7918 7.451C38.6331 7.65738 38.4187 7.87964 38.1489 8.11777C37.8949 8.34003 37.5932 8.60198 37.244 8.90361L35.8628 10.0943L39.6729 13.9044ZM47.1557 16.381C46.2191 16.381 45.3459 16.254 44.5362 16C43.7425 15.7301 43.0439 15.3332 42.4407 14.8093C41.8533 14.2854 41.3849 13.6266 41.0357 12.8328C40.7023 12.039 40.5356 11.1103 40.5356 10.0467C40.5356 8.99887 40.7023 8.1019 41.0357 7.35575C41.3849 6.59372 41.8374 5.97457 42.393 5.4983C42.9487 5.00616 43.5837 4.64896 44.2981 4.4267C45.0125 4.18857 45.7428 4.0695 46.4889 4.0695C47.3303 4.0695 48.0924 4.1965 48.775 4.45051C49.4735 4.70452 50.0689 5.05379 50.561 5.4983C51.069 5.94282 51.458 6.47465 51.7279 7.0938C52.0136 7.71295 52.1565 8.38766 52.1565 9.11793C52.1565 9.6577 52.0057 10.0705 51.7041 10.3562C51.4024 10.642 50.9817 10.8246 50.442 10.9039L44.5601 11.785C44.7347 12.3089 45.0919 12.7058 45.6317 12.9757C46.1714 13.2297 46.7906 13.3567 47.4891 13.3567C48.14 13.3567 48.7512 13.2773 49.3227 13.1186C49.9101 12.944 50.3864 12.7455 50.7515 12.5232C51.0055 12.682 51.2199 12.9043 51.3945 13.19C51.5691 13.4758 51.6564 13.7774 51.6564 14.0949C51.6564 14.8093 51.3231 15.3412 50.6563 15.6904C50.1483 15.9603 49.5767 16.1429 48.9417 16.2381C48.3067 16.3334 47.7114 16.381 47.1557 16.381ZM46.4889 7.02236C46.1079 7.02236 45.7745 7.08586 45.4888 7.21286C45.2189 7.33987 44.9966 7.50656 44.822 7.71295C44.6474 7.90345 44.5124 8.12571 44.4172 8.37972C44.3378 8.61785 44.2902 8.86393 44.2743 9.11793L48.3464 8.45116C48.2988 8.13365 48.1241 7.81614 47.8225 7.49863C47.5208 7.18111 47.0763 7.02236 46.4889 7.02236ZM58.1534 15.9762C57.9946 16.0238 57.7406 16.0714 57.3914 16.1191C57.058 16.1667 56.7087 16.1905 56.3436 16.1905C55.9943 16.1905 55.6768 16.1667 55.391 16.1191C55.1212 16.0714 54.891 15.9762 54.7005 15.8333C54.51 15.6904 54.3591 15.4999 54.248 15.2618C54.1528 15.0078 54.1051 14.6823 54.1051 14.2854V7.14142C54.1051 6.77629 54.1686 6.46671 54.2956 6.2127C54.4385 5.94282 54.637 5.70468 54.891 5.4983C55.145 5.29192 55.4545 5.10935 55.8197 4.95059C56.2007 4.77596 56.6055 4.62514 57.0342 4.49814C57.4628 4.37114 57.9073 4.27588 58.3677 4.21238C58.8281 4.133 59.2885 4.09331 59.7489 4.09331C60.5109 4.09331 61.1142 4.24413 61.5587 4.54577C62.0032 4.83153 62.2255 5.30779 62.2255 5.97457C62.2255 6.19683 62.1937 6.41909 62.1302 6.64134C62.0667 6.84773 61.9874 7.03823 61.8921 7.21286C61.5587 7.21286 61.2174 7.22874 60.8681 7.26049C60.5189 7.29224 60.1775 7.33987 59.8441 7.40337C59.5108 7.46687 59.1932 7.53831 58.8916 7.61769C58.6059 7.68119 58.3598 7.76057 58.1534 7.85583V15.9762ZM66.0775 13.0471C65.9029 12.6503 65.7123 12.2057 65.506 11.7136C65.3155 11.2214 65.1091 10.6579 64.8868 10.0228C64.6804 9.38782 64.4582 8.66548 64.22 7.85583C63.9978 7.0303 63.7597 6.0857 63.5056 5.02203C63.7279 4.79978 64.0216 4.60927 64.3867 4.45051C64.7677 4.27588 65.1805 4.18857 65.625 4.18857C66.1807 4.18857 66.6411 4.30763 67.0062 4.54577C67.3713 4.76803 67.6412 5.19667 67.8159 5.83169L69.6971 12.3804H69.7924C69.9829 11.8406 70.1654 11.2532 70.3401 10.6182C70.5306 9.98315 70.7132 9.33226 70.8878 8.66548C71.0624 7.98283 71.2212 7.30812 71.3641 6.64134C71.5228 5.95869 71.6578 5.29192 71.7689 4.64102C72.3404 4.33938 72.9675 4.18857 73.6501 4.18857C74.2058 4.18857 74.6662 4.30763 75.0313 4.54577C75.3965 4.7839 75.579 5.19667 75.579 5.78406C75.579 6.2127 75.5235 6.71278 75.4123 7.2843C75.3012 7.83995 75.1504 8.43528 74.9599 9.07031C74.7852 9.70533 74.5709 10.3642 74.3169 11.0468C74.0788 11.7136 73.8248 12.3724 73.5549 13.0233C73.285 13.6742 73.0072 14.2934 72.7214 14.8808C72.4357 15.4523 72.1578 15.9682 71.8879 16.4286C71.4434 17.2065 71.0307 17.8416 70.6497 18.3337C70.2686 18.8259 69.9035 19.2069 69.5542 19.4768C69.205 19.7625 68.8557 19.953 68.5064 20.0483C68.1572 20.1594 67.792 20.215 67.411 20.215C66.7443 20.215 66.2045 20.0165 65.7917 19.6196C65.379 19.2227 65.1329 18.7068 65.0535 18.0718C65.5615 17.6749 66.0695 17.2304 66.5776 16.7382C67.0856 16.2619 67.546 15.7698 67.9587 15.2618C67.6889 15.1824 67.3952 14.9998 67.0776 14.7141C66.776 14.4124 66.4426 13.8568 66.0775 13.0471ZM81.7891 10.261C81.0906 10.0228 80.4556 9.78471 79.884 9.54658C79.3125 9.29257 78.8204 8.99093 78.4076 8.64167C77.9948 8.2924 77.6694 7.87964 77.4313 7.40337C77.209 6.91123 77.0979 6.31589 77.0979 5.61737C77.0979 4.26794 77.6138 3.1884 78.6457 2.37875C79.6935 1.56909 81.1541 1.16427 83.0274 1.16427C83.71 1.16427 84.3451 1.21189 84.9325 1.30715C85.5199 1.4024 86.0199 1.55322 86.4327 1.7596C86.8614 1.95011 87.1947 2.20412 87.4329 2.52163C87.671 2.82327 87.7901 3.18047 87.7901 3.59323C87.7901 4.006 87.6948 4.3632 87.5043 4.66483C87.3138 4.95059 87.0836 5.19667 86.8137 5.40305C86.4645 5.18079 85.9961 4.99028 85.4087 4.83153C84.8213 4.6569 84.1784 4.56958 83.4799 4.56958C82.7655 4.56958 82.2416 4.67277 81.9082 4.87915C81.5748 5.06966 81.4081 5.31573 81.4081 5.61737C81.4081 5.8555 81.5113 6.05395 81.7177 6.2127C81.924 6.35558 82.2336 6.49053 82.6464 6.61753L83.9085 7.02236C85.4008 7.49863 86.5438 8.10984 87.3376 8.85599C88.1473 9.58626 88.5521 10.5864 88.5521 11.8565C88.5521 13.2059 88.0203 14.3013 86.9566 15.1427C85.8929 15.9682 84.3292 16.381 82.2654 16.381C81.5351 16.381 80.8524 16.3175 80.2174 16.1905C79.5983 16.0794 79.0506 15.9127 78.5743 15.6904C78.1139 15.4523 77.7488 15.1665 77.4789 14.8331C77.2249 14.4839 77.0979 14.087 77.0979 13.6425C77.0979 13.1821 77.2328 12.7931 77.5027 12.4756C77.7726 12.1422 78.0663 11.8882 78.3838 11.7136C78.8283 12.0629 79.3681 12.3645 80.0031 12.6185C80.654 12.8725 81.3605 12.9995 82.1225 12.9995C82.9004 12.9995 83.4481 12.8804 83.7656 12.6423C84.0831 12.4042 84.2419 12.1264 84.2419 11.8088C84.2419 11.4913 84.1149 11.2532 83.8609 11.0944C83.6069 10.9198 83.2497 10.7531 82.7893 10.5944L81.7891 10.261ZM96.8633 15.6428C96.6411 15.8333 96.3394 15.9841 95.9584 16.0953C95.5774 16.2223 95.125 16.2858 94.6011 16.2858C93.9502 16.2858 93.3866 16.1905 92.9103 16C92.4341 15.8254 92.1165 15.5714 91.9578 15.238C91.7832 14.857 91.5768 14.2537 91.3386 13.4282C91.1164 12.6026 90.8941 11.6977 90.6719 10.7134C90.4496 9.72914 90.2353 8.72898 90.0289 7.71295C89.8384 6.69691 89.6876 5.79994 89.5764 5.02203C89.7987 4.79978 90.0924 4.60927 90.4575 4.45051C90.8386 4.27588 91.2513 4.18857 91.6958 4.18857C92.2515 4.18857 92.7039 4.31557 93.0532 4.56958C93.4183 4.80771 93.6406 5.22842 93.72 5.83169C93.8787 7.03823 94.0137 8.0384 94.1248 8.83217C94.2359 9.61008 94.3232 10.253 94.3867 10.7611C94.4661 11.2532 94.5217 11.6342 94.5534 11.9041C94.6011 12.1581 94.6408 12.3645 94.6725 12.5232H94.7678C94.8154 12.2692 94.8948 11.9041 95.0059 11.4278C95.1329 10.9357 95.2758 10.38 95.4345 9.7609C95.5933 9.14175 95.76 8.47497 95.9346 7.76057C96.1093 7.0303 96.2839 6.30796 96.4585 5.59356C96.776 5.41892 97.0856 5.28398 97.3872 5.18873C97.7047 5.09347 98.0937 5.04585 98.5541 5.04585C99.1097 5.04585 99.586 5.13316 99.9829 5.30779C100.38 5.48243 100.634 5.75231 100.745 6.11745C100.935 6.81598 101.118 7.49863 101.293 8.1654C101.467 8.8163 101.626 9.42751 101.769 9.99903C101.912 10.5547 102.039 11.0548 102.15 11.4993C102.261 11.9279 102.34 12.2692 102.388 12.5232H102.507C102.682 11.3008 102.848 10.0308 103.007 8.71311C103.182 7.39543 103.341 6.05395 103.483 4.68865C103.769 4.51402 104.071 4.38701 104.388 4.30763C104.706 4.22826 105.023 4.18857 105.341 4.18857C105.897 4.18857 106.357 4.30763 106.722 4.54577C107.087 4.7839 107.27 5.19667 107.27 5.78406C107.27 6.03807 107.23 6.41909 107.151 6.9271C107.071 7.43512 106.968 8.00664 106.841 8.64167C106.714 9.27669 106.563 9.94346 106.389 10.642C106.23 11.3405 106.063 12.0152 105.889 12.6661C105.73 13.317 105.571 13.9044 105.412 14.4283C105.269 14.9522 105.142 15.357 105.031 15.6428C104.809 15.8333 104.468 15.9841 104.007 16.0953C103.547 16.2223 103.055 16.2858 102.531 16.2858C101.197 16.2858 100.412 15.9524 100.173 15.2856C100.078 14.9998 99.9591 14.6426 99.8162 14.214C99.6733 13.7695 99.5225 13.2853 99.3637 12.7614C99.205 12.2375 99.0542 11.6977 98.9113 11.1421C98.7684 10.5706 98.6493 10.0228 98.5541 9.49895C98.443 10.0546 98.308 10.6341 98.1493 11.2373C97.9905 11.8247 97.8238 12.4042 97.6492 12.9757C97.4904 13.5313 97.3396 14.0473 97.1967 14.5236C97.0538 14.984 96.9427 15.357 96.8633 15.6428ZM114.057 13.4282C114.327 13.4282 114.621 13.4043 114.938 13.3567C115.271 13.2932 115.518 13.2138 115.676 13.1186V11.2135L113.962 11.3564C113.517 11.3881 113.152 11.4834 112.866 11.6422C112.581 11.8009 112.438 12.039 112.438 12.3566C112.438 12.6741 112.557 12.936 112.795 13.1424C113.049 13.3329 113.47 13.4282 114.057 13.4282ZM113.866 4.0695C114.724 4.0695 115.502 4.15681 116.2 4.33145C116.915 4.50608 117.518 4.77596 118.01 5.1411C118.518 5.49036 118.907 5.94282 119.177 6.49846C119.447 7.03823 119.582 7.68119 119.582 8.42735V13.7615C119.582 14.1743 119.463 14.5156 119.224 14.7855C119.002 15.0395 118.732 15.2618 118.415 15.4523C117.383 16.0714 115.93 16.381 114.057 16.381C113.216 16.381 112.454 16.3016 111.771 16.1429C111.104 15.9841 110.525 15.746 110.033 15.4285C109.556 15.111 109.183 14.7061 108.913 14.214C108.659 13.7219 108.532 13.1503 108.532 12.4994C108.532 11.404 108.858 10.5626 109.509 9.97522C110.16 9.38782 111.168 9.02268 112.533 8.8798L115.652 8.54641V8.37972C115.652 7.91933 115.446 7.59388 115.033 7.40337C114.636 7.19699 114.057 7.0938 113.295 7.0938C112.692 7.0938 112.104 7.1573 111.533 7.2843C110.961 7.41131 110.445 7.57007 109.985 7.76057C109.779 7.61769 109.604 7.40337 109.461 7.11761C109.318 6.81598 109.247 6.5064 109.247 6.18889C109.247 5.77612 109.342 5.45068 109.532 5.21254C109.739 4.95853 110.048 4.74421 110.461 4.56958C110.922 4.39495 111.461 4.26794 112.08 4.18857C112.715 4.10919 113.311 4.0695 113.866 4.0695ZM127.367 4.0695C128.32 4.0695 129.201 4.1965 130.011 4.45051C130.836 4.68865 131.543 5.06172 132.13 5.56974C132.717 6.07776 133.178 6.72072 133.511 7.49863C133.845 8.26065 134.011 9.1735 134.011 10.2372C134.011 11.2532 133.868 12.1422 133.583 12.9043C133.297 13.6663 132.892 14.3093 132.368 14.8331C131.844 15.3412 131.209 15.7222 130.463 15.9762C129.733 16.2302 128.915 16.3572 128.01 16.3572C127.328 16.3572 126.693 16.254 126.105 16.0476V20.0006C125.946 20.0483 125.692 20.0959 125.343 20.1435C124.994 20.207 124.637 20.2388 124.272 20.2388C123.922 20.2388 123.605 20.215 123.319 20.1673C123.049 20.1197 122.819 20.0245 122.628 19.8816C122.438 19.7387 122.295 19.5403 122.2 19.2862C122.105 19.0481 122.057 18.7306 122.057 18.3337V6.90329C122.057 6.47465 122.144 6.12539 122.319 5.8555C122.509 5.58562 122.763 5.33955 123.081 5.11729C123.573 4.79978 124.184 4.54577 124.915 4.35526C125.645 4.16475 126.462 4.0695 127.367 4.0695ZM127.415 13.1662C129.05 13.1662 129.868 12.1899 129.868 10.2372C129.868 9.22113 129.661 8.46704 129.249 7.97489C128.852 7.48275 128.272 7.23668 127.51 7.23668C127.209 7.23668 126.939 7.27637 126.701 7.35575C126.462 7.41925 126.256 7.49863 126.081 7.59388V12.8328C126.272 12.9281 126.478 13.0075 126.701 13.071C126.923 13.1345 127.161 13.1662 127.415 13.1662Z" fill="#FFCD84"/>
</svg>